<mxfile host="app.diagrams.net" agent="Mozilla/5.0 (Windows NT 10.0; Win64; x64) AppleWebKit/537.36 (KHTML, like Gecko) Chrome/129.0.0.0 Safari/537.36" version="24.8.0">
  <diagram name="Trang-1" id="h1iMuyx2vo7tg9_zRuOv">
    <mxGraphModel dx="1655" dy="2060" grid="1" gridSize="10" guides="1" tooltips="1" connect="1" arrows="1" fold="1" page="1" pageScale="1" pageWidth="827" pageHeight="1169" math="0" shadow="0">
      <root>
        <mxCell id="0" />
        <mxCell id="1" parent="0" />
        <mxCell id="LnjJ8S02E94sQUpCKak5-77" value="" style="rounded=0;whiteSpace=wrap;html=1;movable=1;resizable=1;rotatable=1;deletable=1;editable=1;locked=0;connectable=1;" parent="1" vertex="1">
          <mxGeometry x="150" y="-100" width="530" height="1230" as="geometry" />
        </mxCell>
        <mxCell id="LnjJ8S02E94sQUpCKak5-37" style="rounded=0;orthogonalLoop=1;jettySize=auto;html=1;entryX=0;entryY=0.5;entryDx=0;entryDy=0;endArrow=none;endFill=0;" parent="1" source="LnjJ8S02E94sQUpCKak5-1" target="LnjJ8S02E94sQUpCKak5-3" edge="1">
          <mxGeometry relative="1" as="geometry" />
        </mxCell>
        <mxCell id="LnjJ8S02E94sQUpCKak5-38" style="rounded=0;orthogonalLoop=1;jettySize=auto;html=1;entryX=0;entryY=0.5;entryDx=0;entryDy=0;endArrow=none;endFill=0;" parent="1" source="LnjJ8S02E94sQUpCKak5-1" target="LnjJ8S02E94sQUpCKak5-4" edge="1">
          <mxGeometry relative="1" as="geometry" />
        </mxCell>
        <mxCell id="LnjJ8S02E94sQUpCKak5-39" style="rounded=0;orthogonalLoop=1;jettySize=auto;html=1;entryX=0;entryY=0.5;entryDx=0;entryDy=0;endArrow=none;endFill=0;" parent="1" source="LnjJ8S02E94sQUpCKak5-1" target="LnjJ8S02E94sQUpCKak5-2" edge="1">
          <mxGeometry relative="1" as="geometry" />
        </mxCell>
        <mxCell id="LnjJ8S02E94sQUpCKak5-1" value="Visitor" style="shape=umlActor;verticalLabelPosition=bottom;verticalAlign=top;html=1;outlineConnect=0;" parent="1" vertex="1">
          <mxGeometry x="50" y="420" width="30" height="60" as="geometry" />
        </mxCell>
        <mxCell id="LnjJ8S02E94sQUpCKak5-2" value="Create an Account" style="ellipse;whiteSpace=wrap;html=1;" parent="1" vertex="1">
          <mxGeometry x="235" y="270" width="90" height="40" as="geometry" />
        </mxCell>
        <mxCell id="LnjJ8S02E94sQUpCKak5-3" value="Login" style="ellipse;whiteSpace=wrap;html=1;" parent="1" vertex="1">
          <mxGeometry x="255" y="320" width="70" height="40" as="geometry" />
        </mxCell>
        <mxCell id="LnjJ8S02E94sQUpCKak5-45" style="rounded=0;orthogonalLoop=1;jettySize=auto;html=1;entryX=0;entryY=1;entryDx=0;entryDy=0;endArrow=open;endFill=0;dashed=1;" parent="1" source="LnjJ8S02E94sQUpCKak5-4" target="LnjJ8S02E94sQUpCKak5-18" edge="1">
          <mxGeometry relative="1" as="geometry" />
        </mxCell>
        <mxCell id="LnjJ8S02E94sQUpCKak5-4" value="View posts" style="ellipse;whiteSpace=wrap;html=1;" parent="1" vertex="1">
          <mxGeometry x="190" y="440" width="100" height="60" as="geometry" />
        </mxCell>
        <mxCell id="LnjJ8S02E94sQUpCKak5-5" value="Add favorite" style="ellipse;whiteSpace=wrap;html=1;" parent="1" vertex="1">
          <mxGeometry x="240" y="520" width="100" height="60" as="geometry" />
        </mxCell>
        <mxCell id="LnjJ8S02E94sQUpCKak5-10" value="Comment" style="ellipse;whiteSpace=wrap;html=1;" parent="1" vertex="1">
          <mxGeometry x="550" y="525" width="100" height="60" as="geometry" />
        </mxCell>
        <mxCell id="LnjJ8S02E94sQUpCKak5-11" value="Upvote" style="ellipse;whiteSpace=wrap;html=1;" parent="1" vertex="1">
          <mxGeometry x="230" y="680" width="100" height="60" as="geometry" />
        </mxCell>
        <mxCell id="LnjJ8S02E94sQUpCKak5-48" style="rounded=0;orthogonalLoop=1;jettySize=auto;html=1;endArrow=open;endFill=0;dashed=1;" parent="1" source="LnjJ8S02E94sQUpCKak5-12" target="LnjJ8S02E94sQUpCKak5-13" edge="1">
          <mxGeometry relative="1" as="geometry" />
        </mxCell>
        <mxCell id="LnjJ8S02E94sQUpCKak5-12" value="Create thread" style="ellipse;whiteSpace=wrap;html=1;" parent="1" vertex="1">
          <mxGeometry x="380" y="770" width="100" height="60" as="geometry" />
        </mxCell>
        <mxCell id="LnjJ8S02E94sQUpCKak5-13" value="enter required info" style="ellipse;whiteSpace=wrap;html=1;" parent="1" vertex="1">
          <mxGeometry x="364" y="675" width="130" height="50" as="geometry" />
        </mxCell>
        <mxCell id="LnjJ8S02E94sQUpCKak5-14" value="Delete posts" style="ellipse;whiteSpace=wrap;html=1;" parent="1" vertex="1">
          <mxGeometry x="295" y="910" width="100" height="60" as="geometry" />
        </mxCell>
        <mxCell id="LnjJ8S02E94sQUpCKak5-15" value="Edit posts" style="ellipse;whiteSpace=wrap;html=1;" parent="1" vertex="1">
          <mxGeometry x="485" y="910" width="100" height="60" as="geometry" />
        </mxCell>
        <mxCell id="LnjJ8S02E94sQUpCKak5-28" style="rounded=0;orthogonalLoop=1;jettySize=auto;html=1;endArrow=open;endFill=0;dashed=1;exitX=1;exitY=1;exitDx=0;exitDy=0;" parent="1" source="LnjJ8S02E94sQUpCKak5-5" target="LnjJ8S02E94sQUpCKak5-17" edge="1">
          <mxGeometry relative="1" as="geometry" />
        </mxCell>
        <mxCell id="LnjJ8S02E94sQUpCKak5-29" style="rounded=0;orthogonalLoop=1;jettySize=auto;html=1;endArrow=open;endFill=0;dashed=1;" parent="1" source="LnjJ8S02E94sQUpCKak5-10" target="LnjJ8S02E94sQUpCKak5-17" edge="1">
          <mxGeometry relative="1" as="geometry" />
        </mxCell>
        <mxCell id="LnjJ8S02E94sQUpCKak5-30" style="rounded=0;orthogonalLoop=1;jettySize=auto;html=1;endArrow=open;endFill=0;dashed=1;" parent="1" source="LnjJ8S02E94sQUpCKak5-11" target="LnjJ8S02E94sQUpCKak5-17" edge="1">
          <mxGeometry relative="1" as="geometry" />
        </mxCell>
        <mxCell id="LnjJ8S02E94sQUpCKak5-47" style="rounded=0;orthogonalLoop=1;jettySize=auto;html=1;endArrow=open;endFill=0;dashed=1;exitX=0;exitY=0.5;exitDx=0;exitDy=0;" parent="1" source="LnjJ8S02E94sQUpCKak5-31" target="LnjJ8S02E94sQUpCKak5-17" edge="1">
          <mxGeometry relative="1" as="geometry" />
        </mxCell>
        <mxCell id="LnjJ8S02E94sQUpCKak5-59" style="rounded=0;orthogonalLoop=1;jettySize=auto;html=1;entryX=0.5;entryY=1;entryDx=0;entryDy=0;dashed=1;endArrow=open;endFill=0;" parent="1" source="LnjJ8S02E94sQUpCKak5-17" target="LnjJ8S02E94sQUpCKak5-18" edge="1">
          <mxGeometry relative="1" as="geometry" />
        </mxCell>
        <mxCell id="LnjJ8S02E94sQUpCKak5-17" value="View posts" style="ellipse;whiteSpace=wrap;html=1;" parent="1" vertex="1">
          <mxGeometry x="390" y="600" width="95" height="50" as="geometry" />
        </mxCell>
        <mxCell id="LnjJ8S02E94sQUpCKak5-18" value="View post details" style="ellipse;whiteSpace=wrap;html=1;" parent="1" vertex="1">
          <mxGeometry x="385" y="440" width="100" height="60" as="geometry" />
        </mxCell>
        <mxCell id="LnjJ8S02E94sQUpCKak5-40" style="rounded=0;orthogonalLoop=1;jettySize=auto;html=1;entryX=0;entryY=0.5;entryDx=0;entryDy=0;endArrow=none;endFill=0;" parent="1" source="LnjJ8S02E94sQUpCKak5-19" target="LnjJ8S02E94sQUpCKak5-27" edge="1">
          <mxGeometry relative="1" as="geometry" />
        </mxCell>
        <mxCell id="LnjJ8S02E94sQUpCKak5-42" style="rounded=0;orthogonalLoop=1;jettySize=auto;html=1;entryX=0;entryY=0.5;entryDx=0;entryDy=0;endArrow=none;endFill=0;" parent="1" source="LnjJ8S02E94sQUpCKak5-19" target="LnjJ8S02E94sQUpCKak5-12" edge="1">
          <mxGeometry relative="1" as="geometry" />
        </mxCell>
        <mxCell id="LnjJ8S02E94sQUpCKak5-43" style="rounded=0;orthogonalLoop=1;jettySize=auto;html=1;entryX=0;entryY=0.5;entryDx=0;entryDy=0;endArrow=none;endFill=0;" parent="1" source="LnjJ8S02E94sQUpCKak5-19" target="LnjJ8S02E94sQUpCKak5-32" edge="1">
          <mxGeometry relative="1" as="geometry" />
        </mxCell>
        <mxCell id="LnjJ8S02E94sQUpCKak5-44" style="rounded=0;orthogonalLoop=1;jettySize=auto;html=1;entryX=0;entryY=0.5;entryDx=0;entryDy=0;endArrow=none;endFill=0;" parent="1" source="LnjJ8S02E94sQUpCKak5-19" target="LnjJ8S02E94sQUpCKak5-34" edge="1">
          <mxGeometry relative="1" as="geometry" />
        </mxCell>
        <mxCell id="LnjJ8S02E94sQUpCKak5-19" value="Member" style="shape=umlActor;verticalLabelPosition=bottom;verticalAlign=top;html=1;outlineConnect=0;" parent="1" vertex="1">
          <mxGeometry x="60" y="630" width="30" height="60" as="geometry" />
        </mxCell>
        <mxCell id="LnjJ8S02E94sQUpCKak5-27" value="Logout" style="ellipse;whiteSpace=wrap;html=1;" parent="1" vertex="1">
          <mxGeometry x="185" y="585" width="70" height="40" as="geometry" />
        </mxCell>
        <mxCell id="LnjJ8S02E94sQUpCKak5-31" value="Downvote" style="ellipse;whiteSpace=wrap;html=1;" parent="1" vertex="1">
          <mxGeometry x="540" y="660" width="100" height="60" as="geometry" />
        </mxCell>
        <mxCell id="LnjJ8S02E94sQUpCKak5-52" style="rounded=0;orthogonalLoop=1;jettySize=auto;html=1;endArrow=open;endFill=0;dashed=1;exitX=0.97;exitY=0.355;exitDx=0;exitDy=0;exitPerimeter=0;" parent="1" source="LnjJ8S02E94sQUpCKak5-14" target="LnjJ8S02E94sQUpCKak5-32" edge="1">
          <mxGeometry relative="1" as="geometry" />
        </mxCell>
        <mxCell id="LnjJ8S02E94sQUpCKak5-32" value="Manage my posts" style="ellipse;whiteSpace=wrap;html=1;" parent="1" vertex="1">
          <mxGeometry x="379" y="840" width="100" height="60" as="geometry" />
        </mxCell>
        <mxCell id="LnjJ8S02E94sQUpCKak5-53" style="rounded=0;orthogonalLoop=1;jettySize=auto;html=1;endArrow=open;endFill=0;dashed=1;exitX=0.5;exitY=1;exitDx=0;exitDy=0;" parent="1" source="LnjJ8S02E94sQUpCKak5-36" target="LnjJ8S02E94sQUpCKak5-34" edge="1">
          <mxGeometry relative="1" as="geometry" />
        </mxCell>
        <mxCell id="LnjJ8S02E94sQUpCKak5-36" value="Edit Profile" style="ellipse;whiteSpace=wrap;html=1;" parent="1" vertex="1">
          <mxGeometry x="405" y="950" width="80" height="50" as="geometry" />
        </mxCell>
        <mxCell id="LnjJ8S02E94sQUpCKak5-54" value="&amp;lt;&amp;lt;include&amp;gt;&amp;gt;" style="text;html=1;align=center;verticalAlign=middle;resizable=0;points=[];autosize=1;strokeColor=none;fillColor=none;rotation=10;" parent="1" vertex="1">
          <mxGeometry x="295" y="450" width="90" height="30" as="geometry" />
        </mxCell>
        <mxCell id="TxDwH6RKPVz5ejtsAX8L-1" style="rounded=0;orthogonalLoop=1;jettySize=auto;html=1;entryX=1;entryY=0.5;entryDx=0;entryDy=0;endArrow=none;endFill=0;" edge="1" parent="1" source="BU2_-BXgg7wCJHALMrLG-1" target="BU2_-BXgg7wCJHALMrLG-5">
          <mxGeometry relative="1" as="geometry" />
        </mxCell>
        <mxCell id="TxDwH6RKPVz5ejtsAX8L-2" style="rounded=0;orthogonalLoop=1;jettySize=auto;html=1;entryX=1;entryY=0.5;entryDx=0;entryDy=0;endArrow=none;endFill=0;" edge="1" parent="1" source="BU2_-BXgg7wCJHALMrLG-1" target="BU2_-BXgg7wCJHALMrLG-2">
          <mxGeometry relative="1" as="geometry" />
        </mxCell>
        <mxCell id="TxDwH6RKPVz5ejtsAX8L-3" style="rounded=0;orthogonalLoop=1;jettySize=auto;html=1;entryX=1;entryY=0.5;entryDx=0;entryDy=0;endArrow=none;endFill=0;" edge="1" parent="1" source="BU2_-BXgg7wCJHALMrLG-1" target="BU2_-BXgg7wCJHALMrLG-3">
          <mxGeometry relative="1" as="geometry" />
        </mxCell>
        <mxCell id="TxDwH6RKPVz5ejtsAX8L-26" style="rounded=0;orthogonalLoop=1;jettySize=auto;html=1;entryX=1;entryY=0;entryDx=0;entryDy=0;" edge="1" parent="1" source="BU2_-BXgg7wCJHALMrLG-1" target="LnjJ8S02E94sQUpCKak5-32">
          <mxGeometry relative="1" as="geometry" />
        </mxCell>
        <mxCell id="TxDwH6RKPVz5ejtsAX8L-27" style="rounded=0;orthogonalLoop=1;jettySize=auto;html=1;entryX=1;entryY=0.5;entryDx=0;entryDy=0;" edge="1" parent="1" source="BU2_-BXgg7wCJHALMrLG-1" target="LnjJ8S02E94sQUpCKak5-34">
          <mxGeometry relative="1" as="geometry" />
        </mxCell>
        <mxCell id="BU2_-BXgg7wCJHALMrLG-1" value="Admin" style="shape=umlActor;verticalLabelPosition=bottom;verticalAlign=top;html=1;outlineConnect=0;" parent="1" vertex="1">
          <mxGeometry x="790" y="550" width="30" height="60" as="geometry" />
        </mxCell>
        <mxCell id="TxDwH6RKPVz5ejtsAX8L-6" style="rounded=0;orthogonalLoop=1;jettySize=auto;html=1;entryX=1;entryY=1;entryDx=0;entryDy=0;dashed=1;endArrow=open;endFill=0;" edge="1" parent="1" source="BU2_-BXgg7wCJHALMrLG-2" target="BU2_-BXgg7wCJHALMrLG-12">
          <mxGeometry relative="1" as="geometry" />
        </mxCell>
        <mxCell id="TxDwH6RKPVz5ejtsAX8L-7" style="rounded=0;orthogonalLoop=1;jettySize=auto;html=1;dashed=1;endArrow=open;endFill=0;exitX=1;exitY=0.5;exitDx=0;exitDy=0;" edge="1" parent="1" source="BU2_-BXgg7wCJHALMrLG-13" target="BU2_-BXgg7wCJHALMrLG-2">
          <mxGeometry relative="1" as="geometry" />
        </mxCell>
        <mxCell id="TxDwH6RKPVz5ejtsAX8L-8" style="rounded=0;orthogonalLoop=1;jettySize=auto;html=1;dashed=1;endArrow=open;endFill=0;" edge="1" parent="1" source="BU2_-BXgg7wCJHALMrLG-6" target="BU2_-BXgg7wCJHALMrLG-2">
          <mxGeometry relative="1" as="geometry" />
        </mxCell>
        <mxCell id="BU2_-BXgg7wCJHALMrLG-2" value="Manage posts" style="ellipse;whiteSpace=wrap;html=1;" parent="1" vertex="1">
          <mxGeometry x="555" y="195" width="111" height="60" as="geometry" />
        </mxCell>
        <mxCell id="TxDwH6RKPVz5ejtsAX8L-9" style="rounded=0;orthogonalLoop=1;jettySize=auto;html=1;entryX=1;entryY=0.5;entryDx=0;entryDy=0;dashed=1;endArrow=open;endFill=0;" edge="1" parent="1" source="BU2_-BXgg7wCJHALMrLG-3" target="BU2_-BXgg7wCJHALMrLG-14">
          <mxGeometry relative="1" as="geometry" />
        </mxCell>
        <mxCell id="TxDwH6RKPVz5ejtsAX8L-10" style="rounded=0;orthogonalLoop=1;jettySize=auto;html=1;dashed=1;endArrow=open;endFill=0;" edge="1" parent="1" source="BU2_-BXgg7wCJHALMrLG-11" target="BU2_-BXgg7wCJHALMrLG-3">
          <mxGeometry relative="1" as="geometry" />
        </mxCell>
        <mxCell id="BU2_-BXgg7wCJHALMrLG-3" value="Manage users" style="ellipse;whiteSpace=wrap;html=1;" parent="1" vertex="1">
          <mxGeometry x="550" y="320" width="110" height="60" as="geometry" />
        </mxCell>
        <mxCell id="TxDwH6RKPVz5ejtsAX8L-4" style="rounded=0;orthogonalLoop=1;jettySize=auto;html=1;dashed=1;endArrow=open;endFill=0;exitX=0.5;exitY=1;exitDx=0;exitDy=0;" edge="1" parent="1" source="BU2_-BXgg7wCJHALMrLG-9" target="BU2_-BXgg7wCJHALMrLG-5">
          <mxGeometry relative="1" as="geometry" />
        </mxCell>
        <mxCell id="TxDwH6RKPVz5ejtsAX8L-5" style="rounded=0;orthogonalLoop=1;jettySize=auto;html=1;dashed=1;endArrow=open;endFill=0;exitX=1;exitY=0.5;exitDx=0;exitDy=0;" edge="1" parent="1" source="BU2_-BXgg7wCJHALMrLG-10" target="BU2_-BXgg7wCJHALMrLG-5">
          <mxGeometry relative="1" as="geometry" />
        </mxCell>
        <mxCell id="BU2_-BXgg7wCJHALMrLG-5" value="Manage tags" style="ellipse;whiteSpace=wrap;html=1;" parent="1" vertex="1">
          <mxGeometry x="558" y="125" width="105" height="60" as="geometry" />
        </mxCell>
        <mxCell id="BU2_-BXgg7wCJHALMrLG-6" value="Delete posts" style="ellipse;whiteSpace=wrap;html=1;" parent="1" vertex="1">
          <mxGeometry x="360" y="255" width="95" height="50" as="geometry" />
        </mxCell>
        <mxCell id="BU2_-BXgg7wCJHALMrLG-9" value="Add tags" style="ellipse;whiteSpace=wrap;html=1;" parent="1" vertex="1">
          <mxGeometry x="590" y="-10" width="90" height="40" as="geometry" />
        </mxCell>
        <mxCell id="BU2_-BXgg7wCJHALMrLG-10" value="Delete tags" style="ellipse;whiteSpace=wrap;html=1;" parent="1" vertex="1">
          <mxGeometry x="450" y="30" width="90" height="40" as="geometry" />
        </mxCell>
        <mxCell id="BU2_-BXgg7wCJHALMrLG-11" value="Ban users" style="ellipse;whiteSpace=wrap;html=1;" parent="1" vertex="1">
          <mxGeometry x="520" y="460" width="90" height="40" as="geometry" />
        </mxCell>
        <mxCell id="BU2_-BXgg7wCJHALMrLG-12" value="View created posts" style="ellipse;whiteSpace=wrap;html=1;" parent="1" vertex="1">
          <mxGeometry x="350" y="100" width="100" height="50" as="geometry" />
        </mxCell>
        <mxCell id="BU2_-BXgg7wCJHALMrLG-13" value="Accept posts" style="ellipse;whiteSpace=wrap;html=1;" parent="1" vertex="1">
          <mxGeometry x="319" y="170" width="95" height="55" as="geometry" />
        </mxCell>
        <mxCell id="BU2_-BXgg7wCJHALMrLG-14" value="View a list of user and their details" style="ellipse;whiteSpace=wrap;html=1;" parent="1" vertex="1">
          <mxGeometry x="360" y="330" width="135" height="70" as="geometry" />
        </mxCell>
        <mxCell id="TxDwH6RKPVz5ejtsAX8L-11" value="&amp;lt;&amp;lt;extends&amp;gt;&amp;gt;" style="text;html=1;align=center;verticalAlign=middle;resizable=0;points=[];autosize=1;strokeColor=none;fillColor=none;rotation=55;" vertex="1" parent="1">
          <mxGeometry x="530" y="60" width="90" height="30" as="geometry" />
        </mxCell>
        <mxCell id="TxDwH6RKPVz5ejtsAX8L-13" value="&amp;lt;&amp;lt;include&amp;gt;&amp;gt;" style="text;html=1;align=center;verticalAlign=middle;resizable=0;points=[];autosize=1;strokeColor=none;fillColor=none;rotation=-5;" vertex="1" parent="1">
          <mxGeometry x="475" y="330" width="90" height="30" as="geometry" />
        </mxCell>
        <mxCell id="TxDwH6RKPVz5ejtsAX8L-14" value="&amp;lt;&amp;lt;extends&amp;gt;&amp;gt;" style="text;html=1;align=center;verticalAlign=middle;resizable=0;points=[];autosize=1;strokeColor=none;fillColor=default;rotation=-15;" vertex="1" parent="1">
          <mxGeometry x="450" y="225" width="90" height="30" as="geometry" />
        </mxCell>
        <mxCell id="TxDwH6RKPVz5ejtsAX8L-15" value="&amp;lt;&amp;lt;extends&amp;gt;&amp;gt;" style="text;html=1;align=center;verticalAlign=middle;resizable=0;points=[];autosize=1;strokeColor=none;fillColor=none;rotation=5;" vertex="1" parent="1">
          <mxGeometry x="440" y="182.5" width="90" height="30" as="geometry" />
        </mxCell>
        <mxCell id="TxDwH6RKPVz5ejtsAX8L-16" value="&amp;lt;&amp;lt;include&amp;gt;&amp;gt;" style="text;html=1;align=center;verticalAlign=middle;resizable=0;points=[];autosize=1;strokeColor=none;fillColor=none;rotation=30;" vertex="1" parent="1">
          <mxGeometry x="460" y="140" width="90" height="30" as="geometry" />
        </mxCell>
        <mxCell id="TxDwH6RKPVz5ejtsAX8L-19" value="&amp;lt;&amp;lt;extends&amp;gt;&amp;gt;" style="text;html=1;align=center;verticalAlign=middle;resizable=0;points=[];autosize=1;strokeColor=none;fillColor=none;rotation=-70;" vertex="1" parent="1">
          <mxGeometry x="530" y="400" width="90" height="30" as="geometry" />
        </mxCell>
        <mxCell id="TxDwH6RKPVz5ejtsAX8L-23" style="rounded=0;orthogonalLoop=1;jettySize=auto;html=1;endArrow=none;endFill=0;" edge="1" parent="1" source="BU2_-BXgg7wCJHALMrLG-1" target="LnjJ8S02E94sQUpCKak5-17">
          <mxGeometry relative="1" as="geometry">
            <mxPoint x="597.7857855046068" y="465.3591456441777" as="sourcePoint" />
          </mxGeometry>
        </mxCell>
        <mxCell id="TxDwH6RKPVz5ejtsAX8L-24" value="" style="rounded=0;orthogonalLoop=1;jettySize=auto;html=1;endArrow=open;endFill=0;dashed=1;exitX=0.052;exitY=0.309;exitDx=0;exitDy=0;exitPerimeter=0;" edge="1" parent="1" source="LnjJ8S02E94sQUpCKak5-15" target="LnjJ8S02E94sQUpCKak5-32">
          <mxGeometry relative="1" as="geometry">
            <mxPoint x="420" y="1112" as="sourcePoint" />
            <mxPoint x="402" y="900" as="targetPoint" />
          </mxGeometry>
        </mxCell>
        <mxCell id="LnjJ8S02E94sQUpCKak5-34" value="View Profile&amp;nbsp;" style="ellipse;whiteSpace=wrap;html=1;" parent="1" vertex="1">
          <mxGeometry x="395" y="1060" width="100" height="60" as="geometry" />
        </mxCell>
        <mxCell id="TxDwH6RKPVz5ejtsAX8L-33" value="&amp;lt;&amp;lt;extends&amp;gt;&amp;gt;" style="text;html=1;align=center;verticalAlign=middle;resizable=0;points=[];autosize=1;strokeColor=none;fillColor=none;rotation=0;" vertex="1" parent="1">
          <mxGeometry x="590" y="50" width="90" height="30" as="geometry" />
        </mxCell>
        <mxCell id="TxDwH6RKPVz5ejtsAX8L-34" value="&amp;lt;&amp;lt;include&amp;gt;&amp;gt;" style="text;html=1;align=center;verticalAlign=middle;resizable=0;points=[];autosize=1;strokeColor=none;fillColor=none;rotation=0;" vertex="1" parent="1">
          <mxGeometry x="390" y="530" width="90" height="30" as="geometry" />
        </mxCell>
        <mxCell id="TxDwH6RKPVz5ejtsAX8L-35" value="&amp;lt;&amp;lt;extends&amp;gt;&amp;gt;" style="text;html=1;align=center;verticalAlign=middle;resizable=0;points=[];autosize=1;strokeColor=none;fillColor=none;rotation=-25;" vertex="1" parent="1">
          <mxGeometry x="460" y="560" width="90" height="30" as="geometry" />
        </mxCell>
        <mxCell id="TxDwH6RKPVz5ejtsAX8L-36" value="&amp;lt;&amp;lt;extends&amp;gt;&amp;gt;" style="text;html=1;align=center;verticalAlign=middle;resizable=0;points=[];autosize=1;strokeColor=none;fillColor=none;rotation=30;" vertex="1" parent="1">
          <mxGeometry x="468" y="640" width="90" height="30" as="geometry" />
        </mxCell>
        <mxCell id="TxDwH6RKPVz5ejtsAX8L-38" value="" style="rounded=0;orthogonalLoop=1;jettySize=auto;html=1;entryX=0;entryY=0.5;entryDx=0;entryDy=0;endArrow=none;endFill=0;" edge="1" parent="1" source="LnjJ8S02E94sQUpCKak5-19" target="LnjJ8S02E94sQUpCKak5-17">
          <mxGeometry relative="1" as="geometry">
            <mxPoint x="90" y="659" as="sourcePoint" />
            <mxPoint x="380" y="643" as="targetPoint" />
          </mxGeometry>
        </mxCell>
        <mxCell id="TxDwH6RKPVz5ejtsAX8L-37" value="&amp;lt;&amp;lt;extends&amp;gt;&amp;gt;" style="text;html=1;align=center;verticalAlign=middle;resizable=0;points=[];autosize=1;strokeColor=none;fillColor=none;rotation=-30;" vertex="1" parent="1">
          <mxGeometry x="300" y="645" width="90" height="30" as="geometry" />
        </mxCell>
        <mxCell id="TxDwH6RKPVz5ejtsAX8L-39" value="&amp;lt;&amp;lt;extends&amp;gt;&amp;gt;" style="text;html=1;align=center;verticalAlign=middle;resizable=0;points=[];autosize=1;strokeColor=none;fillColor=none;rotation=30;" vertex="1" parent="1">
          <mxGeometry x="330" y="565" width="90" height="30" as="geometry" />
        </mxCell>
        <mxCell id="TxDwH6RKPVz5ejtsAX8L-41" value="&amp;lt;&amp;lt;include&amp;gt;&amp;gt;" style="text;html=1;align=center;verticalAlign=middle;resizable=0;points=[];autosize=1;strokeColor=none;fillColor=none;rotation=0;" vertex="1" parent="1">
          <mxGeometry x="385" y="740" width="90" height="30" as="geometry" />
        </mxCell>
        <mxCell id="TxDwH6RKPVz5ejtsAX8L-43" value="&amp;lt;&amp;lt;extends&amp;gt;&amp;gt;" style="text;html=1;align=center;verticalAlign=middle;resizable=0;points=[];autosize=1;strokeColor=none;fillColor=none;rotation=15;" vertex="1" parent="1">
          <mxGeometry x="295" y="860" width="90" height="30" as="geometry" />
        </mxCell>
        <mxCell id="TxDwH6RKPVz5ejtsAX8L-45" value="&amp;lt;&amp;lt;extends&amp;gt;&amp;gt;" style="text;html=1;align=center;verticalAlign=middle;resizable=0;points=[];autosize=1;strokeColor=none;fillColor=none;rotation=-15;" vertex="1" parent="1">
          <mxGeometry x="475" y="870" width="90" height="30" as="geometry" />
        </mxCell>
        <mxCell id="TxDwH6RKPVz5ejtsAX8L-46" value="&amp;lt;&amp;lt;extends&amp;gt;&amp;gt;" style="text;html=1;align=center;verticalAlign=middle;resizable=0;points=[];autosize=1;strokeColor=none;fillColor=none;rotation=0;" vertex="1" parent="1">
          <mxGeometry x="404" y="1010" width="90" height="30" as="geometry" />
        </mxCell>
      </root>
    </mxGraphModel>
  </diagram>
</mxfile>
